<?xml version="1.0" encoding="utf-8" standalone="no"?>
<!DOCTYPE svg PUBLIC "-//W3C//DTD SVG 1.1//EN"
  "http://www.w3.org/Graphics/SVG/1.1/DTD/svg11.dtd">
<svg xmlns:xlink="http://www.w3.org/1999/xlink" width="460.8pt" height="347.04pt" viewBox="0 0 460.8 347.04" xmlns="http://www.w3.org/2000/svg" version="1.1">
 <metadata>
  <rdf:RDF xmlns:dc="http://purl.org/dc/elements/1.1/" xmlns:cc="http://creativecommons.org/ns#" xmlns:rdf="http://www.w3.org/1999/02/22-rdf-syntax-ns#">
   <cc:Work>
    <dc:type rdf:resource="http://purl.org/dc/dcmitype/StillImage"/>
    <dc:date>2024-11-04T18:05:36.015252</dc:date>
    <dc:format>image/svg+xml</dc:format>
    <dc:creator>
     <cc:Agent>
      <dc:title>Matplotlib v3.6.3, https://matplotlib.org/</dc:title>
     </cc:Agent>
    </dc:creator>
   </cc:Work>
  </rdf:RDF>
 </metadata>
 <defs>
  <style type="text/css">*{stroke-linejoin: round; stroke-linecap: butt}</style>
 </defs>
 <g id="figure_1">
  <g id="patch_1">
   <path d="M 0 347.04 
L 460.8 347.04 
L 460.8 0 
L 0 0 
z
" style="fill: #ffffff"/>
  </g>
  <g id="axes_1">
   <g id="patch_2">
    <path d="M 7.2 339.84 
L 453.6 339.84 
L 453.6 7.2 
L 7.2 7.2 
z
" style="fill: #ffffff"/>
   </g>
   <g id="matplotlib.axis_1"/>
   <g id="matplotlib.axis_2"/>
   <g id="line2d_1">
    <path d="M 27.490909 155.373553 
L 30.33448 93.963552 
L 31.959378 64.338654 
L 33.178051 46.478844 
L 33.9905 37.0762 
L 34.802948 29.883752 
L 35.615397 25.032172 
L 36.021622 23.512944 
L 36.427846 22.607697 
L 36.83407 22.32 
L 37.240295 22.650484 
L 37.646519 23.596842 
L 38.052744 25.153845 
L 38.865192 30.064384 
L 39.677641 37.283019 
L 40.49009 46.666879 
L 41.708763 64.389764 
L 42.927437 85.78716 
L 44.552334 118.406933 
L 49.427027 219.728204 
L 50.6457 240.074174 
L 51.864373 256.506066 
L 52.676822 264.930434 
L 53.489271 271.1378 
L 54.30172 275.01063 
L 54.707944 276.047122 
L 55.114169 276.476378 
L 55.520393 276.296583 
L 55.926618 275.508864 
L 56.332842 274.117274 
L 56.739066 272.128779 
L 57.551515 266.403286 
L 58.363964 258.444733 
L 59.176413 248.408502 
L 60.395086 229.896103 
L 61.613759 207.965412 
L 63.644881 166.466314 
L 66.894676 98.513185 
L 68.519574 69.421756 
L 69.738247 51.687453 
L 70.550696 42.262315 
L 71.363145 34.980435 
L 72.175594 29.989352 
L 72.581818 28.387128 
L 72.988043 27.393094 
L 73.394267 27.013124 
L 73.800491 27.250175 
L 74.206716 28.104264 
L 74.61294 29.572475 
L 75.019165 31.648967 
L 75.831613 37.588998 
L 76.644062 45.820579 
L 77.456511 56.196364 
L 78.675184 75.358661 
L 79.893857 98.126309 
L 81.92498 141.476208 
L 85.580999 222.007326 
L 87.205897 252.41568 
L 88.42457 270.996258 
L 89.237019 280.935148 
L 90.049468 288.702894 
L 90.861916 294.163674 
L 91.268141 295.998534 
L 91.674365 297.225844 
L 92.08059 297.841339 
L 92.486814 297.843682 
L 92.893038 297.234475 
L 93.299263 296.018249 
L 93.705487 294.202442 
L 94.517936 288.816144 
L 95.330385 281.191523 
L 96.142834 271.487335 
L 97.361507 253.476085 
L 98.58018 232.057918 
L 100.611302 191.454916 
L 103.861097 125.063412 
L 105.485995 96.797216 
L 106.704668 79.686822 
L 107.517117 70.674019 
L 108.329566 63.797281 
L 109.142015 59.200143 
L 109.548239 57.789384 
L 109.954464 56.982426 
L 110.360688 56.784601 
L 110.766912 57.198318 
L 111.173137 58.223049 
L 111.579361 59.855332 
L 112.39181 64.91415 
L 113.204259 72.289367 
L 114.016708 81.851116 
L 115.235381 99.906862 
L 116.454054 121.747455 
L 118.078952 155.176875 
L 123.359869 268.273466 
L 124.578542 288.838494 
L 125.797215 305.314162 
L 126.609664 313.680964 
L 127.422113 319.769798 
L 127.828337 321.923938 
L 128.234562 323.470942 
L 128.640786 324.404196 
L 129.047011 324.72 
L 129.453235 324.417588 
L 129.859459 323.499132 
L 130.265684 321.969731 
L 131.078133 317.112971 
L 131.890581 309.945367 
L 132.70303 300.608823 
L 133.921704 282.94801 
L 135.140377 261.599692 
L 136.765274 229.021641 
L 141.639967 127.645503 
L 142.85864 107.246567 
L 144.077314 90.749645 
L 144.889762 82.276597 
L 145.702211 76.017373 
L 146.51466 72.090506 
L 146.920885 71.026503 
L 147.327109 70.569584 
L 147.733333 70.721696 
L 148.139558 71.481849 
L 148.545782 72.846119 
L 148.952007 74.807674 
L 149.764455 80.480942 
L 150.576904 88.390312 
L 151.389353 98.381348 
L 152.608026 116.835317 
L 153.826699 138.721027 
L 155.857821 180.180061 
L 159.513841 255.934366 
L 160.732514 277.319293 
L 161.951188 295.114492 
L 162.763636 304.5863 
L 163.576085 311.918689 
L 164.388534 316.96316 
L 164.794758 318.592842 
L 165.200983 319.614671 
L 165.607207 320.022639 
L 166.013432 319.813657 
L 166.419656 318.987574 
L 166.82588 317.547173 
L 167.232105 315.498163 
L 168.044554 309.611588 
L 168.857002 301.430611 
L 169.669451 291.101618 
L 170.888124 272.000435 
L 172.106798 249.280734 
L 174.13792 205.976232 
L 177.793939 125.407643 
L 179.418837 94.936253 
L 180.63751 76.293205 
L 181.449959 66.306881 
L 182.262408 58.488119 
L 183.074857 52.973719 
L 183.481081 51.111392 
L 183.887305 49.856351 
L 184.29353 49.212996 
L 184.699754 49.182795 
L 185.105979 49.76428 
L 185.512203 50.953054 
L 185.918428 52.741809 
L 186.730876 58.075722 
L 187.543325 65.651077 
L 188.355774 75.310064 
L 189.574447 93.262993 
L 190.79312 114.636406 
L 192.824242 155.199883 
L 196.074038 221.626604 
L 197.698935 249.953287 
L 198.917609 267.124547 
L 199.730057 276.183902 
L 200.542506 283.110942 
L 201.354955 287.761168 
L 201.761179 289.199198 
L 202.167404 290.03374 
L 202.573628 290.259327 
L 202.979853 289.873417 
L 203.386077 288.876407 
L 203.792301 287.271624 
L 204.60475 282.266616 
L 205.417199 274.942767 
L 206.229648 265.428956 
L 207.448321 247.436697 
L 208.666994 225.647084 
L 210.291892 192.262457 
L 215.572809 79.105005 
L 216.791482 58.484208 
L 218.010156 41.941008 
L 218.822604 33.524053 
L 219.635053 27.38206 
L 220.447502 23.625761 
L 220.853726 22.664506 
L 221.259951 22.320598 
L 221.666175 22.594935 
L 222.0724 23.485477 
L 222.478624 24.987259 
L 222.884848 27.092409 
L 223.697297 33.067051 
L 224.509746 41.290131 
L 225.322195 51.599731 
L 226.540868 70.525773 
L 228.165766 100.896382 
L 230.603112 152.583654 
L 233.040459 203.691953 
L 234.665356 233.085839 
L 235.884029 251.03218 
L 236.696478 260.600884 
L 237.508927 268.034886 
L 238.321376 273.193008 
L 238.7276 274.886434 
L 239.133825 275.977938 
L 239.540049 276.462516 
L 239.946274 276.338087 
L 240.352498 275.60551 
L 240.758722 274.268573 
L 241.164947 272.333979 
L 241.977396 266.712993 
L 242.789844 258.852886 
L 243.602293 248.907146 
L 244.820966 230.511793 
L 246.03964 208.671284 
L 248.070762 167.25273 
L 251.726781 91.452211 
L 252.945455 70.019805 
L 254.164128 52.163892 
L 254.976577 42.645512 
L 255.789025 35.26269 
L 256.601474 30.164886 
L 257.007699 28.507764 
L 257.413923 27.458153 
L 257.820147 27.022193 
L 258.226372 27.203106 
L 258.632596 28.001178 
L 259.038821 29.413757 
L 259.445045 31.435268 
L 260.257494 37.268334 
L 261.069943 45.39863 
L 261.882391 55.680736 
L 263.101065 74.720623 
L 264.319738 97.39216 
L 266.35086 140.650852 
L 270.413104 229.389235 
L 271.631777 251.79028 
L 272.85045 270.495624 
L 273.662899 280.529289 
L 274.475348 288.398996 
L 275.287797 293.966968 
L 275.694021 295.856747 
L 276.100246 297.139509 
L 276.50647 297.810723 
L 276.912695 297.868785 
L 277.318919 297.31503 
L 277.725143 296.153724 
L 278.131368 294.392041 
L 278.943817 289.110573 
L 279.756265 281.584564 
L 280.568714 271.970882 
L 281.787387 254.076461 
L 283.006061 232.748023 
L 285.037183 192.22449 
L 288.286978 125.763234 
L 289.911876 97.376359 
L 291.130549 80.144411 
L 291.942998 71.0386 
L 292.755446 64.061333 
L 293.567895 59.358072 
L 293.97412 57.892787 
L 294.380344 57.030674 
L 294.786568 56.77733 
L 295.192793 57.13543 
L 295.599017 58.104713 
L 296.005242 59.681984 
L 296.81769 64.633138 
L 297.630139 71.905553 
L 298.442588 81.371336 
L 299.661261 99.299939 
L 300.879934 121.038365 
L 302.504832 154.377879 
L 307.785749 267.595103 
L 309.004423 288.271471 
L 310.223096 304.882045 
L 311.035545 313.349073 
L 311.847993 319.544168 
L 312.660442 323.355589 
L 313.066667 324.344835 
L 313.472891 324.716846 
L 313.879115 324.47059 
L 314.28534 323.607971 
L 314.691564 322.133824 
L 315.097789 320.055888 
L 315.910238 314.133899 
L 316.722686 305.960278 
L 317.535135 295.696005 
L 318.753808 276.828352 
L 320.378706 246.513958 
L 322.816052 194.856879 
L 325.253399 143.710289 
L 326.878296 114.255691 
L 328.09697 96.248406 
L 328.909419 86.633155 
L 329.721867 79.148909 
L 330.534316 73.937811 
L 330.940541 72.217191 
L 331.346765 71.098196 
L 331.752989 70.585964 
L 332.159214 70.682706 
L 332.565438 71.387701 
L 332.971663 72.69729 
L 333.377887 74.604904 
L 334.190336 80.173551 
L 335.002785 87.984314 
L 335.815233 97.884659 
L 337.033907 116.221211 
L 338.25258 138.0163 
L 340.283702 179.393957 
L 343.939722 255.239925 
L 345.158395 276.719593 
L 346.377068 294.636037 
L 347.189517 304.200892 
L 348.001966 311.634068 
L 348.814414 316.785151 
L 349.220639 318.469694 
L 349.626863 319.547074 
L 350.033088 320.011019 
L 350.439312 319.858174 
L 350.845536 319.08812 
L 351.251761 317.703374 
L 351.657985 315.70938 
L 352.470434 309.929876 
L 353.282883 301.850336 
L 354.095332 291.615214 
L 355.314005 272.636803 
L 356.532678 250.013645 
L 358.157576 215.812814 
L 362.626044 118.013677 
L 363.844717 95.563358 
L 365.063391 76.795895 
L 365.875839 66.714981 
L 366.688288 58.794401 
L 367.500737 53.172905 
L 367.906962 51.255689 
L 368.313186 49.945215 
L 368.71941 49.246147 
L 369.125635 49.160221 
L 369.531859 49.686236 
L 369.938084 50.82006 
L 370.344308 52.55465 
L 371.156757 57.783613 
L 371.969206 65.260195 
L 372.781654 74.82847 
L 374.000328 92.664197 
L 375.219001 113.947438 
L 377.250123 154.43061 
L 380.906143 228.51312 
L 382.124816 249.372491 
L 383.343489 266.664947 
L 384.155938 275.817117 
L 384.968387 282.844536 
L 385.780835 287.600779 
L 386.18706 289.093301 
L 386.593284 289.982975 
L 386.999509 290.26407 
L 387.405733 289.933779 
L 387.811957 288.99223 
L 388.218182 287.442484 
L 389.030631 282.545227 
L 389.843079 275.324312 
L 390.655528 265.906645 
L 391.874201 248.041868 
L 393.092875 226.354835 
L 394.717772 193.060755 
L 399.99869 79.784848 
L 401.217363 59.053107 
L 402.436036 42.375318 
L 403.248485 33.858297 
L 404.060934 27.610158 
L 404.873382 23.74365 
L 405.279607 22.72642 
L 405.685831 22.326308 
L 406.092056 22.54448 
L 406.49828 23.379165 
L 406.904505 24.825662 
L 407.310729 26.876361 
L 408.123178 32.745635 
L 408.935627 40.869714 
L 409.748075 51.088557 
L 410.966749 69.897631 
L 412.185422 92.141313 
L 414.216544 134.173139 
L 417.466339 202.966251 
L 419.091237 232.481269 
L 420.30991 250.54932 
L 421.122359 260.211023 
L 421.934808 267.745441 
L 422.747256 273.009463 
L 423.153481 274.75726 
L 423.559705 275.903736 
L 423.96593 276.443618 
L 424.372154 276.374563 
L 424.778378 275.697159 
L 425.184603 274.414931 
L 425.590827 272.534316 
L 426.403276 267.018066 
L 427.215725 259.256724 
L 428.028174 249.401874 
L 429.246847 231.124308 
L 430.46552 209.374858 
L 432.496642 168.038515 
L 433.309091 150.654187 
L 433.309091 150.654187 
" clip-path="url(#pe810dc4c99)" style="fill: none; stroke: #7e56c2; stroke-width: 1.5; stroke-linecap: square"/>
   </g>
   <g id="line2d_2">
    <path d="M 27.490909 143.276035 
L 32.771826 140.68183 
L 37.646519 138.522344 
L 42.521212 136.60394 
L 46.989681 135.068504 
L 51.458149 133.755655 
L 55.926618 132.672994 
L 60.395086 131.826788 
L 64.863554 131.221935 
L 68.925799 130.884482 
L 72.988043 130.751019 
L 77.050287 130.822185 
L 81.112531 131.097641 
L 85.580999 131.634993 
L 90.049468 132.41481 
L 94.517936 133.432576 
L 98.986405 134.682399 
L 103.454873 136.157046 
L 108.329566 138.012096 
L 113.204259 140.111743 
L 118.485176 142.645566 
L 123.766093 145.428967 
L 129.453235 148.679739 
L 135.546601 152.420255 
L 142.452416 156.931691 
L 150.576904 162.527805 
L 161.138739 170.100353 
L 183.074857 185.896226 
L 191.199345 191.424876 
L 198.10516 195.859111 
L 204.198526 199.517244 
L 209.885667 202.679869 
L 215.166585 205.372427 
L 220.447502 207.807499 
L 225.322195 209.80966 
L 230.196888 211.561837 
L 234.665356 212.938055 
L 239.133825 214.086088 
L 243.602293 214.99929 
L 248.070762 215.672376 
L 252.53923 216.101448 
L 256.601474 216.277649 
L 260.663718 216.249273 
L 264.725962 216.016456 
L 269.194431 215.525586 
L 273.662899 214.791553 
L 278.131368 213.818606 
L 282.599836 212.612376 
L 287.068305 211.179846 
L 291.942998 209.368771 
L 296.81769 207.310749 
L 301.692383 205.019957 
L 306.973301 202.29393 
L 312.660442 199.098756 
L 318.753808 195.410111 
L 325.253399 191.216964 
L 332.971663 185.960585 
L 342.721048 179.025903 
L 369.938084 159.480492 
L 377.656347 154.30613 
L 384.155938 150.202417 
L 390.249304 146.613506 
L 395.936446 143.524326 
L 401.217363 140.906998 
L 406.092056 138.724548 
L 410.966749 136.781786 
L 415.841441 135.092096 
L 420.30991 133.775503 
L 424.778378 132.688983 
L 429.246847 131.838825 
L 433.309091 131.27523 
L 433.309091 131.27523 
" clip-path="url(#pe810dc4c99)" style="fill: none; stroke: #009485; stroke-width: 4; stroke-linecap: square"/>
   </g>
   <g id="patch_3">
    <path d="M 7.2 339.84 
L 7.2 7.2 
" style="fill: none; stroke: #1a1a1a; stroke-linejoin: miter; stroke-linecap: square"/>
   </g>
   <g id="patch_4">
    <path d="M 7.2 339.84 
L 453.6 339.84 
" style="fill: none; stroke: #1a1a1a; stroke-linejoin: miter; stroke-linecap: square"/>
   </g>
  </g>
 </g>
 <defs>
  <clipPath id="pe810dc4c99">
   <rect x="7.2" y="7.2" width="446.4" height="332.64"/>
  </clipPath>
 </defs>
</svg>
